<svg width="30" height="29" viewBox="0 0 30 29" fill="none" xmlns="http://www.w3.org/2000/svg">
<g clip-path="url(#clip0_9_829)">
<path fill-rule="evenodd" clip-rule="evenodd" d="M15.3687 6.72155C15.9448 5.43309 16.5845 4.2146 17.3486 3.1819C18.8965 1.08273 22.6758 -1.44352 24.9878 1.0031C27.0581 3.19155 25.3027 5.58268 22.8369 6.72155H28.4155C28.8477 6.72155 29.2529 6.9001 29.5312 7.18481C29.8193 7.46953 30 7.86041 30 8.28748V11.2577C30 11.6848 29.8193 12.0853 29.5312 12.3604C29.27 12.6185 28.9282 12.7874 28.5425 12.814V27.3104C28.5425 27.7736 28.3545 28.2007 28.0396 28.5023C27.7344 28.8039 27.3022 28.9994 26.8335 28.9994H3.20312C2.73438 28.9994 2.30225 28.8136 1.99707 28.5023C1.69189 28.2007 1.49414 27.7736 1.49414 27.3104V12.8236C1.09863 12.7971 0.737305 12.6282 0.46875 12.37C0.180664 12.0853 0 11.6944 0 11.2673V8.29714C0 7.87006 0.180664 7.46953 0.46875 7.19447C0.756836 6.90975 1.15234 6.7312 1.58447 6.7312H7.26318C4.80713 5.59234 3.05176 3.20121 5.1123 1.01276C7.42432 -1.44111 11.2036 1.09238 12.7515 3.19155C13.5156 4.23149 14.1553 5.44998 14.7314 6.7312H15.3516L15.3687 6.72155ZM20.4175 6.72155C26.0596 4.25079 24.187 0.0886353 20.6152 2.09854C19.7778 2.56904 19.0771 3.44973 18.4473 4.33042C17.854 5.15802 17.3218 6.02906 16.9263 6.72155H20.4175ZM9.68994 6.72155C4.05029 4.25079 5.92041 0.0886353 9.49219 2.09854C10.3296 2.56904 11.0303 3.44973 11.6602 4.33042C12.2534 5.15802 12.7856 6.02906 13.1812 6.72155H9.68994ZM27.229 21.9731H17.2144V27.6916H26.8433C26.9507 27.6916 27.0508 27.6482 27.1216 27.5758C27.1948 27.5034 27.2388 27.4069 27.2388 27.3007V21.9731H27.229ZM12.9663 21.9731H2.80762V27.3007C2.80762 27.4069 2.85156 27.5058 2.9248 27.5758C2.99805 27.6482 3.0957 27.6916 3.20312 27.6916H12.9663V21.9731ZM2.80762 18.4962H12.9663V12.2011H2.80762V18.4962ZM17.2046 18.4962H27.2192V12.2011H17.2046V18.4962Z" fill="white"/>
</g>
<defs>
<clipPath id="clip0_9_829">
<rect width="30" height="29" fill="white"/>
</clipPath>
</defs>
</svg>
