<svg width="22" height="22" viewBox="0 0 22 22" fill="none" xmlns="http://www.w3.org/2000/svg">
<path d="M11.0009 21.9872C17.0685 21.9872 21.9872 17.0685 21.9872 11.0009C21.9872 4.93337 17.0685 0.0146484 11.0009 0.0146484C4.93337 0.0146484 0.0146484 4.93337 0.0146484 11.0009C0.0146484 17.0685 4.93337 21.9872 11.0009 21.9872Z" fill="white"/>
<path d="M4.58593 10.9048L11.9843 7.85658C12.7146 7.53907 15.1913 6.52303 15.1913 6.52303C15.1913 6.52303 16.3345 6.07854 16.2392 7.15803C16.2074 7.60252 15.9535 9.15845 15.6994 10.8412L14.9056 15.8262C14.9056 15.8262 14.8421 16.5565 14.3014 16.6835C13.7607 16.8105 12.8725 16.239 12.7138 16.1119C12.5869 16.0167 10.3324 14.5879 9.50677 13.8893C9.28448 13.6989 9.03051 13.3178 9.53854 12.8733C10.6817 11.8255 12.0471 10.5236 12.8725 9.69806C13.2535 9.31702 13.6346 8.42795 12.047 9.50763L7.56989 12.5241C7.56989 12.5241 7.06177 12.8416 6.10926 12.5559C5.15675 12.2701 4.0454 11.8891 4.0454 11.8891C4.0454 11.8891 3.28332 11.4128 4.58519 10.9049L4.58593 10.9048Z" fill="#4D3B0E"/>
</svg>
